<svg version="1.1" baseProfile="full" xmlns="http://www.w3.org/2000/svg"
width="1024" height="578.7"
viewBox="-26.27 -16.35 45.89 25.94"
>
<rect x="-26.27" y="-16.35" width="100%" height="100%" fill="white" />
<path stroke="green" stroke-width="0.04" stroke-linecap="round" fill="none"
transform="scale(1 -1)"
d="	M 0 0
	L 0 1
	L -0.3827 1.924
	L -0.3827 2.924
	L -0.7654 3.848
	L -0.7654 4.848
	L -1.148 5.772
	L -1.148 6.772
	L -0.7654 7.696
	L -0.05826 8.403
	L 0.3244 9.327
	L 0.3244 10.33
	L -0.05826 11.25
	L -0.05826 12.25
	L -0.4409 13.17
	L -1.148 13.88
	L -2.072 14.26
	L -2.779 14.97
	L -3.703 15.35
	L -4.703 15.35
	L -5.627 14.97
	L -6.627 14.97
	L -7.551 15.35
	L -8.551 15.35
	L -9.475 14.97
	L -10.47 14.97
	L -11.4 14.59
	L -12.11 13.88
	L -13.03 13.5
	L -13.74 12.79
	L -14.12 11.87
	L -14.12 10.87
	L -13.74 9.944
	M 0 0
	L 1 -1.305e-07
	L 1.924 0.3827
	L 2.631 1.09
	L 3.014 2.014
	L 3.721 2.721
	L 4.645 3.103
	L 5.352 3.811
	L 6.276 4.193
	L 7.276 4.193
	L 8.2 4.576
	L 9.2 4.576
	L 10.12 4.193
	L 11.12 4.193
	L 12.05 4.576
	L 12.75 5.283
	L 13.68 5.666
	L 14.68 5.666
	L 15.6 6.048
	L 16.6 6.048
	L 17.53 6.431
	L 18.23 7.138
	L 18.62 8.062
	L 18.62 9.062
	L 18.23 9.986
	L 18.23 10.99
	L 18.62 11.91
	L 18.62 12.91
	L 18.23 13.83
	L 17.53 14.54
	L 16.6 14.92
	L 15.6 14.92
	L 14.68 15.31
	M 0 0
	L -1 -1.305e-07
	L -1.924 -0.3827
	L -2.631 -1.09
	L -3.555 -1.472
	L -4.555 -1.472
	L -5.479 -1.855
	L -6.186 -2.562
	L -7.11 -2.945
	L -8.11 -2.945
	L -9.034 -2.562
	L -9.741 -1.855
	L -10.66 -1.472
	L -11.37 -0.7654
	L -11.75 0.1585
	L -12.46 0.8656
	L -12.84 1.789
	L -13.55 2.497
	L -14.48 2.879
	L -15.48 2.879
	L -16.4 2.497
	L -17.4 2.497
	L -18.32 2.879
	L -19.03 3.586
	L -19.41 4.51
	L -19.41 5.51
	L -19.8 6.434
	L -20.5 7.141
	L -21.43 7.524
	L -22.43 7.524
	L -23.35 7.907
	L -24.35 7.907
	L -25.27 8.289
	M 0 0
	L 2.609e-07 -1
	L -0.3827 -1.924
	L -1.09 -2.631
	L -1.472 -3.555
	L -1.472 -4.555
	L -1.855 -5.479
	L -2.562 -6.186
	L -2.945 -7.11
	L -3.652 -7.817
	L -4.576 -8.2
	L -5.576 -8.2
	L -6.5 -8.582
	L -7.5 -8.582
	L -8.424 -8.2
	L -9.131 -7.492
	L -10.05 -7.11
	L -11.05 -7.11
	L -11.98 -7.492
	L -12.98 -7.492
	L -13.9 -7.875
	L -14.9 -7.875
	L -15.83 -8.258
	L -16.83 -8.258
	L -17.75 -7.875
	L -18.46 -7.168
	L -19.38 -6.785
	L -20.09 -6.078
	L -21.01 -5.696
	L -22.01 -5.696
	L -22.94 -6.078
	L -23.64 -6.785
	L -24.57 -7.168
"/>
</svg>
