<svg version="1.1" baseProfile="full" xmlns="http://www.w3.org/2000/svg"
width="162" height="1024"
viewBox="-8.769 -101.6 16.23 102.6"
>
<rect x="-8.769" y="-101.6" width="100%" height="100%" fill="white" />
<path stroke="green" stroke-width="0.04" stroke-linecap="round" fill="none"
transform="scale(1 -1)"
d="	M 0 0
	L 0 1
	L -0.2079 1.978
	M 0 1
	L 0 2
	L -0.2079 2.978
	L -0.2079 3.978
	M -0.2079 2.978
	L -0.4158 3.956
	M 0 2
	L 0 3
	L 0.2079 3.978
	M 0 3
	L 0 4
	L 0.2079 4.978
	L 0.2079 5.978
	M 0.2079 4.978
	L 0.4158 5.956
	M 0 4
	L 0 5
	L -0.2079 5.978
	M 0 5
	L 0 6
	L 0.2079 6.978
	M 0 6
	L 0 7
	L -0.2079 7.978
	L -0.6146 8.892
	M -0.2079 7.978
	L -0.4158 8.956
	L -0.8226 9.87
	L -1.03 10.85
	M -0.8226 9.87
	L -1.229 10.78
	M -0.4158 8.956
	L -0.6237 9.934
	L -1.03 10.85
	M -0.6237 9.934
	L -0.8316 10.91
	L -0.8316 11.91
	M -0.8316 10.91
	L -1.04 11.89
	M 0 7
	L 0 8
	L 0.2079 8.978
	M 0 8
	L 0 9
	L 0.2079 9.978
	L 0.2079 10.98
	M 0.2079 9.978
	L 0.4158 10.96
	L 0.8226 11.87
	M 0.4158 10.96
	L 0.6237 11.93
	M 0 9
	L 0 10
	L -0.2079 10.98
	M 0 10
	L 0 11
	L 0.2079 11.98
	M 0 11
	L 0 12
	L 0.2079 12.98
	L 0.2079 13.98
	M 0.2079 12.98
	L 0.4158 13.96
	L 0.8226 14.87
	M 0.4158 13.96
	L 0.6237 14.93
	L 1.03 15.85
	L 1.618 16.66
	M 1.03 15.85
	L 1.437 16.76
	M 0.6237 14.93
	L 0.8316 15.91
	L 0.8316 16.91
	M 0.8316 15.91
	L 1.04 16.89
	M 0 12
	L 0 13
	L -0.2079 13.98
	M 0 13
	L 0 14
	L -0.2079 14.98
	L -0.6146 15.89
	M -0.2079 14.98
	L -0.4158 15.96
	M 0 14
	L 0 15
	L -0.2079 15.98
	M 0 15
	L 0 16
	L -0.2079 16.98
	L -0.6146 17.89
	M -0.2079 16.98
	L -0.4158 17.96
	L -0.4158 18.96
	M -0.4158 17.96
	L -0.6237 18.93
	L -0.6237 19.93
	L -0.8316 20.91
	M -0.6237 19.93
	L -0.6237 20.93
	M -0.6237 18.93
	L -0.8316 19.91
	L -1.238 20.83
	M -0.8316 19.91
	L -1.04 20.89
	L -1.446 21.8
	L -1.654 22.78
	M -1.446 21.8
	L -1.853 22.72
	L -2.441 23.53
	L -3.184 24.2
	M -2.441 23.53
	L -3.029 24.34
	M -1.853 22.72
	L -2.26 23.63
	L -2.848 24.44
	M -2.26 23.63
	L -2.667 24.54
	L -2.874 25.52
	M -2.667 24.54
	L -3.073 25.46
	M -1.04 20.89
	L -1.247 21.87
	L -1.247 22.87
	M -1.247 21.87
	L -1.455 22.85
	L -1.862 23.76
	L -2.45 24.57
	M -1.862 23.76
	L -2.269 24.67
	M -1.455 22.85
	L -1.663 23.83
	L -1.663 24.83
	M -1.663 23.83
	L -1.871 24.8
	L -1.871 25.8
	L -1.663 26.78
	M -1.871 25.8
	L -1.871 26.8
	M -1.871 24.8
	L -2.079 25.78
	L -2.486 26.7
	M -2.079 25.78
	L -2.287 26.76
	L -2.287 27.76
	M -2.287 26.76
	L -2.495 27.74
	M 0 16
	L 0 17
	L -0.2079 17.98
	M 0 17
	L 0 18
	L 0.2079 18.98
	L 0.2079 19.98
	M 0.2079 18.98
	L 0.4158 19.96
	L 0.8226 20.87
	M 0.4158 19.96
	L 0.6237 20.93
	M 0 18
	L 0 19
	L 0.2079 19.98
	M 0 19
	L 0 20
	L -0.2079 20.98
	L -0.6146 21.89
	M -0.2079 20.98
	L -0.4158 21.96
	L -0.4158 22.96
	M -0.4158 21.96
	L -0.6237 22.93
	L -0.6237 23.93
	L -0.4158 24.91
	M -0.6237 23.93
	L -0.6237 24.93
	M -0.6237 22.93
	L -0.8316 23.91
	L -1.238 24.83
	M -0.8316 23.91
	L -1.04 24.89
	M 0 20
	L 0 21
	L -0.2079 21.98
	M 0 21
	L 0 22
	L -0.2079 22.98
	L -0.2079 23.98
	M -0.2079 22.98
	L -0.4158 23.96
	M 0 22
	L 0 23
	L -0.2079 23.98
	M 0 23
	L 0 24
	L 0.2079 24.98
	L 0.6146 25.89
	M 0.2079 24.98
	L 0.4158 25.96
	L 0.4158 26.96
	L 0.6237 27.93
	M 0.4158 26.96
	L 0.4158 27.96
	M 0.4158 25.96
	L 0.6237 26.93
	L 0.6237 27.93
	M 0.6237 26.93
	L 0.8316 27.91
	L 1.238 28.83
	L 1.446 29.8
	M 1.238 28.83
	L 1.645 29.74
	M 0.8316 27.91
	L 1.04 28.89
	L 1.04 29.89
	M 1.04 28.89
	L 1.247 29.87
	L 1.247 30.87
	L 1.455 31.85
	M 1.247 30.87
	L 1.247 31.87
	L 1.04 32.85
	L 0.6328 33.76
	M 1.04 32.85
	L 0.8316 33.83
	M 1.247 31.87
	L 1.247 32.87
	L 1.04 33.85
	M 1.247 32.87
	L 1.247 33.87
	L 1.455 34.85
	M 1.247 33.87
	L 1.247 34.87
	L 1.455 35.85
	L 1.862 36.76
	M 1.455 35.85
	L 1.663 36.83
	M 1.247 34.87
	L 1.247 35.87
	L 1.04 36.85
	M 1.247 35.87
	L 1.247 36.87
	L 1.455 37.85
	M 1.247 36.87
	L 1.247 37.87
	M 1.247 29.87
	L 1.455 30.85
	L 1.862 31.76
	M 1.455 30.85
	L 1.663 31.83
	L 2.07 32.74
	L 2.278 33.72
	M 2.07 32.74
	L 2.477 33.65
	M 1.663 31.83
	L 1.871 32.8
	L 1.871 33.8
	M 1.871 32.8
	L 2.079 33.78
	L 2.486 34.7
	L 2.694 35.67
	M 2.486 34.7
	L 2.893 35.61
	L 3.48 36.42
	M 2.893 35.61
	L 3.299 36.52
	L 3.507 37.5
	L 3.507 38.5
	M 3.507 37.5
	L 3.715 38.48
	M 3.299 36.52
	L 3.706 37.44
	L 4.294 38.24
	M 3.706 37.44
	L 4.113 38.35
	L 4.701 39.16
	L 5.107 40.07
	M 4.701 39.16
	L 5.288 39.97
	M 4.113 38.35
	L 4.52 39.26
	L 4.727 40.24
	M 4.52 39.26
	L 4.926 40.18
	L 5.514 40.99
	M 4.926 40.18
	L 5.333 41.09
	M 2.079 33.78
	L 2.287 34.76
	L 2.287 35.76
	M 2.287 34.76
	L 2.495 35.74
	L 2.902 36.65
	M 2.495 35.74
	L 2.703 36.72
	L 2.703 37.72
	L 2.495 38.69
	M 2.703 37.72
	L 2.703 38.72
	M 2.703 36.72
	L 2.911 37.69
	L 2.911 38.69
	M 2.911 37.69
	L 3.119 38.67
	L 3.525 39.59
	L 3.733 40.56
	M 3.525 39.59
	L 3.932 40.5
	M 3.119 38.67
	L 3.327 39.65
	L 3.733 40.56
	M 3.327 39.65
	L 3.534 40.63
	M 0 24
	L 0 25
	L -0.2079 25.98
	M 0 25
	L 0 26
	L -0.2079 26.98
	L -0.6146 27.89
	M -0.2079 26.98
	L -0.4158 27.96
	L -0.4158 28.96
	M -0.4158 27.96
	L -0.6237 28.93
	M 0 26
	L 0 27
	L 0.2079 27.98
	M 0 27
	L 0 28
	L 0.2079 28.98
	L 0.2079 29.98
	M 0.2079 28.98
	L 0.4158 29.96
	M 0 28
	L 0 29
	L -0.2079 29.98
	M 0 29
	L 0 30
	L -0.2079 30.98
	L -0.2079 31.98
	M -0.2079 30.98
	L -0.4158 31.96
	L -0.8226 32.87
	L -1.41 33.68
	M -0.8226 32.87
	L -1.229 33.78
	M -0.4158 31.96
	L -0.6237 32.93
	L -1.03 33.85
	M -0.6237 32.93
	L -0.8316 33.91
	M 0 30
	L 0 31
	L -0.2079 31.98
	M 0 31
	L 0 32
	L 0.2079 32.98
	M 0 32
	L 0 33
	L 0.2079 33.98
	L 0.2079 34.98
	M 0.2079 33.98
	L 0.4158 34.96
	L 0.8226 35.87
	M 0.4158 34.96
	L 0.6237 35.93
	M 0 33
	L 0 34
	L 0.2079 34.98
	M 0 34
	L 0 35
	L -0.2079 35.98
	L -0.2079 36.98
	M -0.2079 35.98
	L -0.4158 36.96
	L -0.4158 37.96
	L -0.6237 38.93
	M -0.4158 37.96
	L -0.4158 38.96
	L -0.2079 39.93
	M -0.4158 38.96
	L -0.4158 39.96
	M -0.4158 36.96
	L -0.6237 37.93
	L -1.03 38.85
	M -0.6237 37.93
	L -0.8316 38.91
	L -0.8316 39.91
	M -0.8316 38.91
	L -1.04 39.89
	L -1.446 40.8
	L -1.654 41.78
	M -1.446 40.8
	L -1.853 41.72
	L -2.441 42.53
	L -2.848 43.44
	M -2.441 42.53
	L -3.029 43.34
	M -1.853 41.72
	L -2.26 42.63
	L -2.468 43.61
	M -2.26 42.63
	L -2.667 43.54
	L -2.874 44.52
	L -2.874 45.52
	M -2.874 44.52
	L -3.082 45.5
	M -2.667 43.54
	L -3.073 44.46
	L -3.661 45.27
	M -3.073 44.46
	L -3.48 45.37
	M -1.04 39.89
	L -1.247 40.87
	L -1.247 41.87
	M -1.247 40.87
	L -1.455 41.85
	L -1.455 42.85
	L -1.663 43.83
	M -1.455 42.85
	L -1.455 43.85
	L -1.247 44.83
	M -1.455 43.85
	L -1.455 44.85
	M -1.455 41.85
	L -1.663 42.83
	L -2.07 43.74
	M -1.663 42.83
	L -1.871 43.8
	L -1.871 44.8
	M -1.871 43.8
	L -2.079 44.78
	L -2.486 45.7
	L -2.694 46.67
	M -2.486 45.7
	L -2.893 46.61
	L -3.48 47.42
	L -3.887 48.33
	M -3.48 47.42
	L -4.068 48.23
	M -2.893 46.61
	L -3.299 47.52
	L -3.887 48.33
	M -3.299 47.52
	L -3.706 48.44
	L -3.914 49.41
	L -3.914 50.41
	M -3.914 49.41
	L -4.122 50.39
	M -3.706 48.44
	L -4.113 49.35
	L -4.321 50.33
	M -4.113 49.35
	L -4.52 50.26
	L -5.107 51.07
	L -5.85 51.74
	M -5.107 51.07
	L -5.695 51.88
	L -6.102 52.79
	M -5.695 51.88
	L -6.283 52.69
	L -7.026 53.36
	L -7.614 54.17
	M -7.026 53.36
	L -7.769 54.03
	M -6.283 52.69
	L -6.871 53.5
	L -7.614 54.17
	M -6.871 53.5
	L -7.458 54.31
	M -4.52 50.26
	L -4.926 51.18
	L -5.134 52.15
	M -4.926 51.18
	L -5.333 52.09
	L -5.921 52.9
	L -6.328 53.81
	M -5.921 52.9
	L -6.509 53.71
	M -5.333 52.09
	L -5.74 53
	L -5.948 53.98
	M -5.74 53
	L -6.146 53.92
	M -2.079 44.78
	L -2.287 45.76
	L -2.694 46.67
	M -2.287 45.76
	L -2.495 46.74
	L -2.495 47.74
	L -2.703 48.72
	M -2.495 47.74
	L -2.495 48.74
	L -2.287 49.72
	M -2.495 48.74
	L -2.495 49.74
	M -2.495 46.74
	L -2.703 47.72
	L -2.703 48.72
	M -2.703 47.72
	L -2.911 48.69
	L -2.911 49.69
	L -3.119 50.67
	M -2.911 49.69
	L -2.911 50.69
	L -2.703 51.67
	L -2.296 52.59
	M -2.703 51.67
	L -2.495 52.65
	M -2.911 50.69
	L -2.911 51.69
	L -2.703 52.67
	M -2.911 51.69
	L -2.911 52.69
	M -2.911 48.69
	L -3.119 49.67
	L -3.525 50.59
	M -3.119 49.67
	L -3.327 50.65
	L -3.327 51.65
	M -3.327 50.65
	L -3.534 51.63
	L -3.941 52.54
	L -4.529 53.35
	M -3.941 52.54
	L -4.348 53.46
	M -3.534 51.63
	L -3.742 52.61
	L -4.149 53.52
	M -3.742 52.61
	L -3.95 53.58
	L -3.95 54.58
	L -4.158 55.56
	M -3.95 54.58
	L -3.95 55.58
	L -3.742 56.56
	M -3.95 55.58
	L -3.95 56.58
	M -3.95 53.58
	L -4.158 54.56
	L -4.565 55.48
	M -4.158 54.56
	L -4.366 55.54
	L -4.366 56.54
	M -4.366 55.54
	L -4.574 56.52
	M 0 35
	L 0 36
	L 0.2079 36.98
	M 0 36
	L 0 37
	L 0.2079 37.98
	L 0.2079 38.98
	M 0.2079 37.98
	L 0.4158 38.96
	L 0.8226 39.87
	M 0.4158 38.96
	L 0.6237 39.93
	M 0 37
	L 0 38
	L -0.2079 38.98
	M 0 38
	L 0 39
	L -0.2079 39.98
	L -0.6146 40.89
	M -0.2079 39.98
	L -0.4158 40.96
	L -0.4158 41.96
	L -0.6237 42.93
	M -0.4158 41.96
	L -0.4158 42.96
	M -0.4158 40.96
	L -0.6237 41.93
	L -1.03 42.85
	M -0.6237 41.93
	L -0.8316 42.91
	M 0 39
	L 0 40
	L -0.2079 40.98
	M 0 40
	L 0 41
	L 0.2079 41.98
	M 0 41
	L 0 42
	L 0.2079 42.98
	L 0.6146 43.89
	M 0.2079 42.98
	L 0.4158 43.96
	M 0 42
	L 0 43
	L -0.2079 43.98
	M 0 43
	L 0 44
	L 0.2079 44.98
	M 0 44
	L 0 45
	L 0.2079 45.98
	L 0.6146 46.89
	M 0.2079 45.98
	L 0.4158 46.96
	L 0.4158 47.96
	L 0.2079 48.93
	M 0.4158 47.96
	L 0.4158 48.96
	M 0.4158 46.96
	L 0.6237 47.93
	L 0.6237 48.93
	M 0.6237 47.93
	L 0.8316 48.91
	M 0 45
	L 0 46
	L -0.2079 46.98
	M 0 46
	L 0 47
	L 0.2079 47.98
	L 0.2079 48.98
	M 0.2079 47.98
	L 0.4158 48.96
	M 0 47
	L 0 48
	L -0.2079 48.98
	M 0 48
	L 0 49
	L -0.2079 49.98
	L -0.6146 50.89
	M -0.2079 49.98
	L -0.4158 50.96
	L -0.4158 51.96
	M -0.4158 50.96
	L -0.6237 51.93
	L -0.6237 52.93
	L -0.4158 53.91
	M -0.6237 52.93
	L -0.6237 53.93
	M -0.6237 51.93
	L -0.8316 52.91
	L -1.238 53.83
	M -0.8316 52.91
	L -1.04 53.89
	L -1.446 54.8
	L -2.034 55.61
	M -1.446 54.8
	L -1.853 55.72
	L -2.061 56.7
	M -1.853 55.72
	L -2.26 56.63
	L -2.848 57.44
	L -3.591 58.11
	M -2.848 57.44
	L -3.435 58.25
	L -3.842 59.16
	M -3.435 58.25
	L -4.023 59.06
	M -2.26 56.63
	L -2.667 57.54
	L -3.254 58.35
	M -2.667 57.54
	L -3.073 58.46
	L -3.281 59.44
	M -3.073 58.46
	L -3.48 59.37
	M -1.04 53.89
	L -1.247 54.87
	L -1.654 55.78
	M -1.247 54.87
	L -1.455 55.85
	L -1.455 56.85
	M -1.455 55.85
	L -1.663 56.83
	L -2.07 57.74
	L -2.658 58.55
	M -2.07 57.74
	L -2.477 58.65
	M -1.663 56.83
	L -1.871 57.8
	L -2.278 58.72
	M -1.871 57.8
	L -2.079 58.78
	M 0 49
	L 0 50
	L 0.2079 50.98
	M 0 50
	L 0 51
	L -0.2079 51.98
	L -0.6146 52.89
	M -0.2079 51.98
	L -0.4158 52.96
	L -0.4158 53.96
	M -0.4158 52.96
	L -0.6237 53.93
	M 0 51
	L 0 52
	L 0.2079 52.98
	M 0 52
	L 0 53
	L 0.2079 53.98
	L 0.6146 54.89
	M 0.2079 53.98
	L 0.4158 54.96
	M 0 53
	L 0 54
	L 0.2079 54.98
	M 0 54
	L 0 55
	L 0.2079 55.98
	L 0.2079 56.98
	M 0.2079 55.98
	L 0.4158 56.96
	L 0.8226 57.87
	M 0.4158 56.96
	L 0.6237 57.93
	L 1.03 58.85
	L 1.238 59.83
	M 1.03 58.85
	L 1.437 59.76
	L 2.025 60.57
	M 1.437 59.76
	L 1.844 60.68
	M 0.6237 57.93
	L 0.8316 58.91
	L 0.8316 59.91
	M 0.8316 58.91
	L 1.04 59.89
	L 1.446 60.8
	M 1.04 59.89
	L 1.247 60.87
	M 0 55
	L 0 56
	L -0.2079 56.98
	M 0 56
	L 0 57
	L 0.2079 57.98
	M 0 57
	L 0 58
	L -0.2079 58.98
	L -0.6146 59.89
	M -0.2079 58.98
	L -0.4158 59.96
	L -0.4158 60.96
	M -0.4158 59.96
	L -0.6237 60.93
	M 0 58
	L 0 59
	L 0.2079 59.98
	M 0 59
	L 0 60
	L 0.2079 60.98
	L 0.2079 61.98
	M 0.2079 60.98
	L 0.4158 61.96
	L 0.8226 62.87
	M 0.4158 61.96
	L 0.6237 62.93
	M 0 60
	L 0 61
	L -0.2079 61.98
	M 0 61
	L 0 62
	L 0.2079 62.98
	L 0.2079 63.98
	M 0.2079 62.98
	L 0.4158 63.96
	L 0.8226 64.87
	M 0.4158 63.96
	L 0.6237 64.93
	L 1.03 65.85
	L 1.618 66.66
	M 1.03 65.85
	L 1.437 66.76
	M 0.6237 64.93
	L 0.8316 65.91
	L 0.8316 66.91
	M 0.8316 65.91
	L 1.04 66.89
	L 1.04 67.89
	L 0.8316 68.87
	M 1.04 67.89
	L 1.04 68.89
	L 0.8316 69.87
	L 0.4249 70.78
	M 0.8316 69.87
	L 0.6237 70.85
	L 0.6237 71.85
	M 0.6237 70.85
	L 0.4158 71.83
	M 1.04 68.89
	L 1.04 69.89
	L 1.247 70.87
	M 1.04 69.89
	L 1.04 70.89
	M 1.04 66.89
	L 1.247 67.87
	L 1.247 68.87
	M 1.247 67.87
	L 1.455 68.85
	L 1.862 69.76
	M 1.455 68.85
	L 1.663 69.83
	L 1.663 70.83
	L 1.455 71.8
	M 1.663 70.83
	L 1.663 71.83
	L 1.871 72.8
	M 1.663 71.83
	L 1.663 72.83
	M 1.663 69.83
	L 1.871 70.8
	L 1.871 71.8
	M 1.871 70.8
	L 2.079 71.78
	L 2.486 72.7
	M 2.079 71.78
	L 2.287 72.76
	L 2.694 73.67
	L 2.902 74.65
	M 2.694 73.67
	L 3.101 74.59
	M 2.287 72.76
	L 2.495 73.74
	L 2.495 74.74
	M 2.495 73.74
	L 2.703 74.72
	L 3.11 75.63
	M 2.703 74.72
	L 2.911 75.69
	M 0 62
	L 0 63
	L 0.2079 63.98
	M 0 63
	L 0 64
	L -0.2079 64.98
	L -0.6146 65.89
	M -0.2079 64.98
	L -0.4158 65.96
	M 0 64
	L 0 65
	L -0.2079 65.98
	M 0 65
	L 0 66
	L 0.2079 66.98
	M 0 66
	L 0 67
	L 0.2079 67.98
	L 0.2079 68.98
	M 0.2079 67.98
	L 0.4158 68.96
	M 0 67
	L 0 68
	L -0.2079 68.98
	M 0 68
	L 0 69
	L -0.2079 69.98
	L -0.6146 70.89
	M -0.2079 69.98
	L -0.4158 70.96
	L -0.8226 71.87
	L -1.03 72.85
	M -0.8226 71.87
	L -1.229 72.78
	M -0.4158 70.96
	L -0.6237 71.93
	L -1.03 72.85
	M -0.6237 71.93
	L -0.8316 72.91
	L -0.8316 73.91
	M -0.8316 72.91
	L -1.04 73.89
	M 0 69
	L 0 70
	L 0.2079 70.98
	M 0 70
	L 0 71
	L -0.2079 71.98
	L -0.6146 72.89
	M -0.2079 71.98
	L -0.4158 72.96
	M 0 71
	L 0 72
	L 0.2079 72.98
	M 0 72
	L 0 73
	L 0.2079 73.98
	L 0.6146 74.89
	M 0.2079 73.98
	L 0.4158 74.96
	L 0.8226 75.87
	L 1.03 76.85
	M 0.8226 75.87
	L 1.229 76.78
	M 0.4158 74.96
	L 0.6237 75.93
	L 1.03 76.85
	M 0.6237 75.93
	L 0.8316 76.91
	M 0 73
	L 0 74
	L -0.2079 74.98
	M 0 74
	L 0 75
	L 0.2079 75.98
	L 0.2079 76.98
	M 0.2079 75.98
	L 0.4158 76.96
	L 0.8226 77.87
	M 0.4158 76.96
	L 0.6237 77.93
	M 0 75
	L 0 76
	L 0.2079 76.98
	M 0 76
	L 0 77
	L 0.2079 77.98
	L 0.6146 78.89
	M 0.2079 77.98
	L 0.4158 78.96
	L 0.4158 79.96
	L 0.2079 80.93
	M 0.4158 79.96
	L 0.4158 80.96
	L 0.6237 81.93
	M 0.4158 80.96
	L 0.4158 81.96
	M 0.4158 78.96
	L 0.6237 79.93
	L 0.6237 80.93
	M 0.6237 79.93
	L 0.8316 80.91
	L 1.238 81.83
	L 1.446 82.8
	M 1.238 81.83
	L 1.645 82.74
	M 0.8316 80.91
	L 1.04 81.89
	L 1.446 82.8
	M 1.04 81.89
	L 1.247 82.87
	L 1.247 83.87
	L 1.455 84.85
	M 1.247 83.87
	L 1.247 84.87
	L 1.455 85.85
	L 1.455 86.85
	M 1.455 85.85
	L 1.663 86.83
	M 1.247 84.87
	L 1.247 85.87
	L 1.455 86.85
	M 1.247 85.87
	L 1.247 86.87
	M 1.247 82.87
	L 1.455 83.85
	L 1.455 84.85
	M 1.455 83.85
	L 1.663 84.83
	L 2.07 85.74
	M 1.663 84.83
	L 1.871 85.8
	L 2.278 86.72
	L 2.486 87.7
	M 2.278 86.72
	L 2.685 87.63
	M 1.871 85.8
	L 2.079 86.78
	L 2.079 87.78
	M 2.079 86.78
	L 2.287 87.76
	L 2.694 88.67
	M 2.287 87.76
	L 2.495 88.74
	L 2.902 89.65
	L 3.489 90.46
	M 2.902 89.65
	L 3.308 90.56
	L 3.516 91.54
	L 3.516 92.54
	M 3.516 91.54
	L 3.724 92.52
	L 4.131 93.43
	M 3.724 92.52
	L 3.932 93.5
	M 3.308 90.56
	L 3.715 91.48
	L 3.923 92.46
	M 3.715 91.48
	L 4.122 92.39
	L 4.71 93.2
	M 4.122 92.39
	L 4.529 93.31
	L 4.737 94.28
	L 4.737 95.28
	M 4.737 94.28
	L 4.944 95.26
	L 5.351 96.18
	L 5.939 96.98
	M 5.351 96.18
	L 5.758 97.09
	M 4.944 95.26
	L 5.152 96.24
	L 5.559 97.15
	M 5.152 96.24
	L 5.36 97.22
	M 4.529 93.31
	L 4.935 94.22
	L 5.523 95.03
	M 4.935 94.22
	L 5.342 95.13
	L 5.55 96.11
	L 5.957 97.02
	M 5.55 96.11
	L 5.758 97.09
	M 5.342 95.13
	L 5.749 96.05
	L 6.337 96.86
	M 5.749 96.05
	L 6.156 96.96
	M 2.495 88.74
	L 2.703 89.72
	L 2.703 90.72
	M 2.703 89.72
	L 2.911 90.69
	L 2.911 91.69
	L 2.703 92.67
	M 2.911 91.69
	L 2.911 92.69
	L 3.119 93.67
	M 2.911 92.69
	L 2.911 93.69
	M 2.911 90.69
	L 3.119 91.67
	L 3.525 92.59
	M 3.119 91.67
	L 3.327 92.65
	L 3.733 93.56
	L 3.941 94.54
	M 3.733 93.56
	L 4.14 94.48
	L 4.728 95.29
	M 4.14 94.48
	L 4.547 95.39
	L 5.135 96.2
	L 5.541 97.11
	M 5.135 96.2
	L 5.722 97.01
	L 6.466 97.68
	M 5.722 97.01
	L 6.31 97.82
	M 4.547 95.39
	L 4.954 96.3
	L 5.541 97.11
	M 4.954 96.3
	L 5.36 97.22
	M 3.327 92.65
	L 3.534 93.63
	L 3.534 94.63
	M 3.534 93.63
	L 3.742 94.61
	L 4.149 95.52
	M 3.742 94.61
	L 3.95 95.58
	L 3.95 96.58
	L 4.158 97.56
	M 3.95 96.58
	L 3.95 97.58
	M 3.95 95.58
	L 4.158 96.56
	L 4.158 97.56
	M 4.158 96.56
	L 4.366 97.54
	M 0 77
	L 0 78
	L -0.2079 78.98
	M 0 78
	L 0 79
	L 0.2079 79.98
	L 0.6146 80.89
	M 0.2079 79.98
	L 0.4158 80.96
	M 0 79
	L 0 80
	L -0.2079 80.98
	M 0 80
	L 0 81
	L -0.2079 81.98
	L -0.6146 82.89
	M -0.2079 81.98
	L -0.4158 82.96
	L -0.4158 83.96
	M -0.4158 82.96
	L -0.6237 83.93
	L -1.03 84.85
	L -1.238 85.83
	M -1.03 84.85
	L -1.437 85.76
	M -0.6237 83.93
	L -0.8316 84.91
	L -1.238 85.83
	M -0.8316 84.91
	L -1.04 85.89
	L -1.04 86.89
	M -1.04 85.89
	L -1.247 86.87
	L -1.247 87.87
	L -1.04 88.85
	M -1.247 87.87
	L -1.247 88.87
	M -1.247 86.87
	L -1.455 87.85
	L -1.862 88.76
	M -1.455 87.85
	L -1.663 88.83
	L -1.663 89.83
	M -1.663 88.83
	L -1.871 89.8
	M 0 81
	L 0 82
	L -0.2079 82.98
	M 0 82
	L 0 83
	L 0.2079 83.98
	L 0.2079 84.98
	M 0.2079 83.98
	L 0.4158 84.96
	M 0 83
	L 0 84
	L 0.2079 84.98
	M 0 84
	L 0 85
	L 0.2079 85.98
	L 0.2079 86.98
	M 0.2079 85.98
	L 0.4158 86.96
	L 0.8226 87.87
	M 0.4158 86.96
	L 0.6237 87.93
	L 0.6237 88.93
	L 0.4158 89.91
	M 0.6237 88.93
	L 0.6237 89.93
	L 0.8316 90.91
	M 0.6237 89.93
	L 0.6237 90.93
	M 0.6237 87.93
	L 0.8316 88.91
	L 1.238 89.83
	M 0.8316 88.91
	L 1.04 89.89
	M 0 85
	L 0 86
	L -0.2079 86.98
	M 0 86
	L 0 87
	L 0.2079 87.98
	M 0 87
	L 0 88
	L 0.2079 88.98
	L 0.6146 89.89
	M 0.2079 88.98
	L 0.4158 89.96
	M 0 88
	L 0 89
	L -0.2079 89.98
	M 0 89
	L 0 90
	L 0.2079 90.98
	L 0.2079 91.98
	M 0.2079 90.98
	L 0.4158 91.96
	L 0.8226 92.87
	M 0.4158 91.96
	L 0.6237 92.93
	L 0.6237 93.93
	L 0.4158 94.91
	M 0.6237 93.93
	L 0.6237 94.93
	M 0.6237 92.93
	L 0.8316 93.91
	L 0.8316 94.91
	M 0.8316 93.91
	L 1.04 94.89
	L 1.446 95.8
	M 1.04 94.89
	L 1.247 95.87
	L 1.654 96.78
	L 2.242 97.59
	M 1.654 96.78
	L 2.061 97.7
	L 2.269 98.67
	L 2.269 99.67
	M 2.269 98.67
	L 2.477 99.65
	L 2.884 100.6
	M 2.477 99.65
	L 2.685 100.6
	M 2.061 97.7
	L 2.468 98.61
	L 3.055 99.42
	M 2.468 98.61
	L 2.874 99.52
	M 1.247 95.87
	L 1.455 96.85
	L 1.862 97.76
	M 1.455 96.85
	L 1.663 97.83
	L 2.07 98.74
	L 2.278 99.72
	M 2.07 98.74
	L 2.477 99.65
	M 1.663 97.83
	L 1.871 98.8
	L 1.871 99.8
	M 1.871 98.8
	L 2.079 99.78
	M 0 90
	L 0 91
	L -0.2079 91.98
	M 0 91
	L 0 92
	L -0.2079 92.98
	L -0.2079 93.98
	M -0.2079 92.98
	L -0.4158 93.96
	M 0 92
	L 0 93
	L 0.2079 93.98
	M 0 93
	L 0 94
	L 0.2079 94.98
	L 0.6146 95.89
	M 0.2079 94.98
	L 0.4158 95.96
	L 0.4158 96.96
	L 0.2079 97.93
	M 0.4158 96.96
	L 0.4158 97.96
	L 0.6237 98.93
	M 0.4158 97.96
	L 0.4158 98.96
	M 0.4158 95.96
	L 0.6237 96.93
	L 0.6237 97.93
	M 0.6237 96.93
	L 0.8316 97.91
	M 0 94
	L 0 95
	L -0.2079 95.98
	M 0 95
	L 0 96
	L 0.2079 96.98
	M 0 96
	L 0 97
	L 0.2079 97.98
	L 0.2079 98.98
	M 0.2079 97.98
	L 0.4158 98.96
	M 0 97
	L 0 98
	L -0.2079 98.98
	M 0 98
	L 0 99
"/>
</svg>
