<svg version="1.1" baseProfile="full" xmlns="http://www.w3.org/2000/svg"
width="817.6" height="1024"
viewBox="-30.17 -193.2 155 194.2"
>
<rect x="-30.17" y="-193.2" width="100%" height="100%" fill="white" />
<path stroke="green" stroke-width="0.04" stroke-linecap="round" fill="none"
transform="scale(1 -1)"
d="	M 0 0
	L 0.9877 0.1564
	L 1.975 0.3129
	L 2.926 0.6219
	L 3.877 0.9309
	L 4.829 1.24
	L 5.78 1.549
	L 6.671 2.003
	L 7.562 2.457
	L 8.453 2.911
	L 9.344 3.365
	L 8.89 4.256
	L 8.081 4.844
	M 8.89 4.256
	L 8.436 5.147
	L 8.436 6.147
	M 8.436 5.147
	L 7.982 6.038
	L 7.173 6.626
	L 6.719 7.517
	M 7.173 6.626
	L 6.364 7.213
	M 7.982 6.038
	L 7.528 6.929
	L 7.528 7.929
	M 7.528 6.929
	L 7.074 7.82
	L 6.265 8.408
	L 5.811 9.299
	M 6.265 8.408
	L 5.456 8.996
	L 4.468 9.152
	L 3.517 8.843
	M 4.468 9.152
	L 3.48 9.308
	M 5.456 8.996
	L 4.647 9.583
	L 4.193 10.47
	M 4.647 9.583
	L 3.838 10.17
	L 3.384 11.06
	L 3.384 12.06
	M 3.384 11.06
	L 2.93 11.95
	M 3.838 10.17
	L 3.029 10.76
	L 2.041 10.92
	M 3.029 10.76
	L 2.22 11.35
	M 7.074 7.82
	L 6.62 8.711
	L 6.62 9.711
	M 6.62 8.711
	L 6.166 9.602
	L 5.357 10.19
	L 4.369 10.35
	M 5.357 10.19
	L 4.548 10.78
	M 6.166 9.602
	L 5.712 10.49
	L 4.903 11.08
	M 5.712 10.49
	L 5.258 11.38
	L 5.258 12.38
	M 5.258 11.38
	L 4.804 12.27
	L 4.804 13.27
	L 5.258 14.17
	M 4.804 13.27
	L 4.804 14.27
	L 5.258 15.17
	L 6.067 15.75
	M 5.258 15.17
	L 5.712 16.06
	M 4.804 14.27
	L 4.804 15.27
	L 4.35 16.17
	M 4.804 15.27
	L 4.804 16.27
	L 5.258 17.17
	M 4.804 16.27
	L 4.804 17.27
	M 4.804 12.27
	L 4.35 13.17
	L 3.541 13.75
	M 4.35 13.17
	L 3.896 14.06
	L 3.087 14.64
	L 2.099 14.8
	M 3.087 14.64
	L 2.278 15.23
	M 3.896 14.06
	L 3.442 14.95
	L 2.633 15.54
	M 3.442 14.95
	L 2.988 15.84
	L 2.988 16.84
	M 2.988 15.84
	L 2.534 16.73
	L 2.534 17.73
	L 2.988 18.62
	M 2.534 17.73
	L 2.534 18.73
	L 2.988 19.62
	L 2.988 20.62
	M 2.988 19.62
	L 3.442 20.51
	M 2.534 18.73
	L 2.534 19.73
	L 2.988 20.62
	M 2.534 19.73
	L 2.534 20.73
	L 2.988 21.62
	L 2.988 22.62
	M 2.988 21.62
	L 3.442 22.51
	L 4.251 23.1
	M 3.442 22.51
	L 3.896 23.4
	L 4.705 23.99
	L 5.159 24.88
	M 4.705 23.99
	L 5.514 24.58
	L 6.501 24.74
	M 5.514 24.58
	L 6.323 25.17
	M 3.896 23.4
	L 4.35 24.29
	L 4.35 25.29
	M 4.35 24.29
	L 4.804 25.19
	M 2.534 20.73
	L 2.534 21.73
	L 2.988 22.62
	M 2.534 21.73
	L 2.534 22.73
	L 2.08 23.62
	L 1.271 24.21
	M 2.08 23.62
	L 1.626 24.51
	L 1.626 25.51
	M 1.626 24.51
	L 1.172 25.4
	M 2.534 22.73
	L 2.534 23.73
	L 2.988 24.62
	M 2.534 23.73
	L 2.534 24.73
	M 2.534 16.73
	L 2.08 17.62
	L 2.08 18.62
	M 2.08 17.62
	L 1.626 18.51
	L 0.8168 19.1
	L -0.1709 19.26
	M 0.8168 19.1
	L 0.007756 19.69
	M 1.626 18.51
	L 1.172 19.4
	L 0.3628 19.99
	M 1.172 19.4
	L 0.7178 20.29
	L 0.7178 21.29
	M 0.7178 20.29
	L 0.2638 21.19
	L -0.5452 21.77
	L -1.533 21.93
	M -0.5452 21.77
	L -1.354 22.36
	L -1.808 23.25
	M -1.354 22.36
	L -2.163 22.95
	L -3.151 23.1
	L -4.102 22.8
	M -3.151 23.1
	L -4.139 23.26
	L -4.948 23.85
	M -4.139 23.26
	L -5.126 23.42
	M -2.163 22.95
	L -2.972 23.54
	L -3.426 24.43
	M -2.972 23.54
	L -3.781 24.12
	M 0.2638 21.19
	L -0.1902 22.08
	L -0.1902 23.08
	M -0.1902 22.08
	L -0.6442 22.97
	L -1.453 23.55
	L -1.907 24.45
	M -1.453 23.55
	L -2.262 24.14
	M -0.6442 22.97
	L -1.098 23.86
	L -1.098 24.86
	M -1.098 23.86
	L -1.552 24.75
	L -1.552 25.75
	L -2.006 26.64
	M -1.552 25.75
	L -1.552 26.75
	L -1.098 27.64
	M -1.552 26.75
	L -1.552 27.75
	L -1.098 28.64
	L -1.098 29.64
	M -1.098 28.64
	L -0.6442 29.53
	L 0.1649 30.12
	M -0.6442 29.53
	L -0.1902 30.42
	M -1.552 27.75
	L -1.552 28.75
	L -1.098 29.64
	M -1.552 28.75
	L -1.552 29.75
	M -1.552 24.75
	L -2.006 25.64
	L -2.815 26.23
	M -2.006 25.64
	L -2.46 26.53
	L -2.46 27.53
	M -2.46 26.53
	L -2.914 27.42
	L -3.723 28.01
	L -4.711 28.17
	M -3.723 28.01
	L -4.532 28.6
	L -4.986 29.49
	M -4.532 28.6
	L -5.341 29.19
	M -2.914 27.42
	L -3.368 28.31
	L -4.177 28.9
	M -3.368 28.31
	L -3.822 29.2
	L -3.822 30.2
	L -4.276 31.1
	M -3.822 30.2
	L -3.822 31.2
	L -3.368 32.1
	M -3.822 31.2
	L -3.822 32.2
	M -3.822 29.2
	L -4.276 30.1
	L -4.276 31.1
	M -4.276 30.1
	L -4.73 30.99
	L -5.539 31.57
	L -6.527 31.73
	M -5.539 31.57
	L -6.348 32.16
	L -7.336 32.32
	L -8.145 32.91
	M -7.336 32.32
	L -8.323 32.47
	M -6.348 32.16
	L -7.157 32.75
	L -8.145 32.91
	M -7.157 32.75
	L -7.966 33.34
	L -8.42 34.23
	M -7.966 33.34
	L -8.775 33.93
	L -9.229 34.82
	L -9.229 35.82
	M -9.229 34.82
	L -9.683 35.71
	M -8.775 33.93
	L -9.584 34.51
	L -10.04 35.4
	M -9.584 34.51
	L -10.39 35.1
	L -11.38 35.26
	L -12.19 35.84
	M -11.38 35.26
	L -12.37 35.41
	L -13.18 36
	L -14.17 36.16
	M -13.18 36
	L -13.99 36.59
	L -14.44 37.48
	M -13.99 36.59
	L -14.8 37.18
	M -12.37 35.41
	L -13.36 35.57
	L -14.31 35.26
	M -13.36 35.57
	L -14.34 35.73
	L -15.15 36.31
	M -14.34 35.73
	L -15.33 35.88
	M -10.39 35.1
	L -11.2 35.69
	L -11.66 36.58
	M -11.2 35.69
	L -12.01 36.28
	L -13 36.43
	L -13.95 36.12
	M -13 36.43
	L -13.99 36.59
	M -12.01 36.28
	L -12.82 36.86
	L -13.81 37.02
	M -12.82 36.86
	L -13.63 37.45
	L -14.08 38.34
	M -13.63 37.45
	L -14.44 38.04
	L -14.89 38.93
	L -14.89 39.93
	M -14.89 38.93
	L -15.35 39.82
	L -16.16 40.41
	L -16.61 41.3
	M -16.16 40.41
	L -16.96 41
	M -15.35 39.82
	L -15.8 40.71
	L -16.61 41.3
	M -15.8 40.71
	L -16.25 41.6
	L -16.25 42.6
	L -16.71 43.49
	M -16.25 42.6
	L -16.25 43.6
	M -16.25 41.6
	L -16.71 42.49
	L -17.52 43.08
	M -16.71 42.49
	L -17.16 43.39
	M -14.44 38.04
	L -15.25 38.63
	L -16.23 38.78
	M -15.25 38.63
	L -16.06 39.22
	L -17.04 39.37
	L -17.85 39.96
	M -17.04 39.37
	L -18.03 39.53
	M -16.06 39.22
	L -16.87 39.8
	L -17.85 39.96
	M -16.87 39.8
	L -17.67 40.39
	L -18.13 41.28
	L -18.94 41.87
	M -18.13 41.28
	L -18.58 42.17
	M -17.67 40.39
	L -18.48 40.98
	L -19.47 41.13
	M -18.48 40.98
	L -19.29 41.57
	L -20.28 41.72
	L -21.23 41.41
	M -20.28 41.72
	L -21.27 41.88
	L -22.08 42.47
	M -21.27 41.88
	L -22.26 42.04
	L -23.06 42.62
	L -24.05 42.78
	M -23.06 42.62
	L -23.87 43.21
	M -22.26 42.04
	L -23.24 42.19
	L -24.19 41.88
	M -23.24 42.19
	L -24.23 42.35
	L -25.04 42.94
	M -24.23 42.35
	L -25.22 42.5
	L -26.03 43.09
	L -27.02 43.25
	M -26.03 43.09
	L -26.84 43.68
	L -27.29 44.57
	L -28.1 45.16
	M -27.29 44.57
	L -27.74 45.46
	L -27.74 46.46
	M -27.74 45.46
	L -28.2 46.35
	M -26.84 43.68
	L -27.65 44.27
	L -28.63 44.42
	M -27.65 44.27
	L -28.45 44.86
	M -25.22 42.5
	L -26.21 42.66
	L -27.02 43.25
	M -26.21 42.66
	L -27.19 42.82
	L -28.14 42.51
	L -28.85 41.8
	M -28.14 42.51
	L -29.1 42.2
	M -27.19 42.82
	L -28.18 42.97
	L -28.99 43.56
	M -28.18 42.97
	L -29.17 43.13
	M -19.29 41.57
	L -20.1 42.15
	L -21.09 42.31
	M -20.1 42.15
	L -20.91 42.74
	L -21.36 43.63
	M -20.91 42.74
	L -21.72 43.33
	L -22.17 44.22
	L -22.17 45.22
	M -22.17 44.22
	L -22.63 45.11
	M -21.72 43.33
	L -22.53 43.92
	L -23.52 44.07
	M -22.53 43.92
	L -23.34 44.51
	L -23.79 45.4
	L -24.6 45.98
	M -23.79 45.4
	L -24.25 46.29
	L -24.25 47.29
	M -24.25 46.29
	L -24.7 47.18
	L -24.7 48.18
	L -25.15 49.07
	M -24.7 48.18
	L -24.7 49.18
	L -24.25 50.07
	M -24.7 49.18
	L -24.7 50.18
	M -24.7 47.18
	L -25.15 48.07
	L -25.96 48.66
	M -25.15 48.07
	L -25.61 48.96
	L -25.61 49.96
	M -25.61 48.96
	L -26.06 49.85
	M -23.34 44.51
	L -24.15 45.09
	L -24.6 45.98
	M -24.15 45.09
	L -24.96 45.68
	L -25.94 45.84
	L -26.89 45.53
	M -25.94 45.84
	L -26.93 45.99
	M -24.96 45.68
	L -25.76 46.27
	L -26.75 46.42
	M -25.76 46.27
	L -26.57 46.86
	M -4.73 30.99
	L -5.184 31.88
	L -5.184 32.88
	M -5.184 31.88
	L -5.638 32.77
	L -5.638 33.77
	L -6.092 34.66
	M -5.638 33.77
	L -5.638 34.77
	L -5.184 35.66
	M -5.638 34.77
	L -5.638 35.77
	M -5.638 32.77
	L -6.092 33.66
	L -6.092 34.66
	M -6.092 33.66
	L -6.546 34.55
	L -6.546 35.55
	L -7 36.44
	M -6.546 35.55
	L -6.546 36.55
	L -6.092 37.44
	M -6.546 36.55
	L -6.546 37.55
	L -6.092 38.44
	L -6.092 39.44
	M -6.092 38.44
	L -5.638 39.33
	M -6.546 37.55
	L -6.546 38.55
	L -6.092 39.44
	M -6.546 38.55
	L -6.546 39.55
	M -6.546 34.55
	L -7 35.44
	L -7.809 36.03
	M -7 35.44
	L -7.454 36.33
	L -8.263 36.92
	L -9.251 37.08
	M -8.263 36.92
	L -9.072 37.51
	L -9.526 38.4
	M -9.072 37.51
	L -9.881 38.1
	M -7.454 36.33
	L -7.908 37.22
	L -8.717 37.81
	M -7.908 37.22
	L -8.362 38.11
	L -8.362 39.11
	L -8.816 40.01
	M -8.362 39.11
	L -8.362 40.11
	M -8.362 38.11
	L -8.816 39.01
	L -8.816 40.01
	M -8.816 39.01
	L -9.27 39.9
	L -9.27 40.9
	L -8.816 41.79
	M -9.27 40.9
	L -9.27 41.9
	L -9.724 42.79
	L -9.724 43.79
	M -9.724 42.79
	L -10.18 43.68
	M -9.27 41.9
	L -9.27 42.9
	L -9.724 43.79
	M -9.27 42.9
	L -9.27 43.9
	L -8.816 44.79
	M -9.27 43.9
	L -9.27 44.9
	L -8.816 45.79
	L -8.007 46.37
	M -8.816 45.79
	L -8.362 46.68
	M -9.27 44.9
	L -9.27 45.9
	L -8.816 46.79
	M -9.27 45.9
	L -9.27 46.9
	L -9.724 47.79
	L -9.724 48.79
	M -9.724 47.79
	L -10.18 48.68
	L -10.99 49.27
	L -11.97 49.42
	M -10.99 49.27
	L -11.8 49.85
	M -10.18 48.68
	L -10.63 49.57
	L -11.44 50.16
	M -10.63 49.57
	L -11.09 50.46
	M -9.27 46.9
	L -9.27 47.9
	L -9.724 48.79
	M -9.27 47.9
	L -9.27 48.9
	L -8.816 49.79
	M -9.27 48.9
	L -9.27 49.9
	L -9.724 50.79
	L -9.724 51.79
	M -9.724 50.79
	L -10.18 51.68
	M -9.27 49.9
	L -9.27 50.9
	L -9.724 51.79
	M -9.27 50.9
	L -9.27 51.9
	L -8.816 52.79
	M -9.27 51.9
	L -9.27 52.9
	M -9.27 39.9
	L -9.724 40.79
	L -10.53 41.37
	M -9.724 40.79
	L -10.18 41.68
	L -10.18 42.68
	M -10.18 41.68
	L -10.63 42.57
	L -11.44 43.16
	L -12.43 43.31
	M -11.44 43.16
	L -12.25 43.74
	L -12.7 44.64
	M -12.25 43.74
	L -13.06 44.33
	M -10.63 42.57
	L -11.09 43.46
	L -11.89 44.05
	M -11.09 43.46
	L -11.54 44.35
	L -11.54 45.35
	L -11.09 46.24
	M -11.54 45.35
	L -11.54 46.35
	M -11.54 44.35
	L -11.99 45.24
	L -11.99 46.24
	M -11.99 45.24
	L -12.45 46.13
	L -13.26 46.72
	L -14.24 46.88
	M -13.26 46.72
	L -14.07 47.31
	L -14.52 48.2
	M -14.07 47.31
	L -14.87 47.9
	L -15.86 48.05
	L -16.67 48.64
	M -15.86 48.05
	L -16.85 48.21
	M -14.87 47.9
	L -15.68 48.48
	L -16.14 49.38
	M -15.68 48.48
	L -16.49 49.07
	M -12.45 46.13
	L -12.9 47.02
	L -13.71 47.61
	M -12.9 47.02
	L -13.36 47.92
	L -13.36 48.92
	M -13.36 47.92
	L -13.81 48.81
	L -13.81 49.81
	L -14.26 50.7
	M -13.81 49.81
	L -13.81 50.81
	L -13.36 51.7
	M -13.81 50.81
	L -13.81 51.81
	M -13.81 48.81
	L -14.26 49.7
	L -15.07 50.29
	M -14.26 49.7
	L -14.72 50.59
	L -14.72 51.59
	L -15.17 52.48
	M -14.72 51.59
	L -14.72 52.59
	L -14.26 53.48
	L -14.26 54.48
	M -14.26 53.48
	L -13.81 54.37
	M -14.72 52.59
	L -14.72 53.59
	L -14.26 54.48
	M -14.72 53.59
	L -14.72 54.59
	M -14.72 50.59
	L -15.17 51.48
	L -15.98 52.07
	M -15.17 51.48
	L -15.63 52.37
	L -15.63 53.37
	M -15.63 52.37
	L -16.08 53.26
	L -16.89 53.85
	L -17.34 54.74
	M -16.89 53.85
	L -17.7 54.44
	M -16.08 53.26
	L -16.53 54.15
	L -17.34 54.74
	M -16.53 54.15
	L -16.99 55.04
	M 9.344 3.365
	L 10.23 3.819
	L 11.13 4.273
	L 12.02 4.727
	L 12.91 5.181
	L 13.86 5.49
	L 14.81 5.799
	L 15.76 6.108
	L 16.71 6.417
	L 17.7 6.573
	L 18.69 6.73
	L 19.67 6.886
	L 20.66 7.043
	L 21.66 7.043
	L 22.66 7.043
	L 23.66 7.043
	L 24.66 7.043
	L 25.65 7.199
	L 26.64 7.356
	L 27.63 7.512
	L 28.61 7.668
	L 29.56 7.977
	L 30.52 8.286
	L 31.47 8.595
	L 32.42 8.904
	L 33.41 9.061
	L 34.39 9.217
	L 35.38 9.374
	L 36.37 9.53
	L 37.32 9.839
	L 38.27 10.15
	L 39.22 10.46
	L 40.17 10.77
	L 41.16 10.92
	L 42.15 11.08
	L 43.14 11.24
	L 44.12 11.39
	L 45.07 11.7
	L 46.03 12.01
	L 46.98 12.32
	L 47.93 12.63
	L 48.82 13.08
	L 49.71 13.54
	L 50.6 13.99
	L 51.49 14.44
	L 52.3 15.03
	L 53.11 15.62
	L 53.92 16.21
	L 54.73 16.8
	L 55.43 17.5
	L 56.14 18.21
	L 56.85 18.92
	L 57.56 19.62
	L 58.14 20.43
	L 58.73 21.24
	L 59.32 22.05
	L 59.91 22.86
	L 60.61 23.57
	L 61.32 24.27
	L 62.03 24.98
	L 62.74 25.69
	L 63.32 26.5
	L 63.91 27.31
	L 64.5 28.12
	L 65.09 28.92
	L 65.54 29.82
	L 65.99 30.71
	L 66.45 31.6
	L 66.9 32.49
	L 67.21 33.44
	L 67.52 34.39
	L 67.83 35.34
	L 68.14 36.29
	L 68.3 37.28
	L 68.45 38.27
	L 68.61 39.26
	L 68.76 40.24
	L 69.07 41.19
	L 69.38 42.15
	L 69.69 43.1
	L 70 44.05
	L 70.16 45.04
	L 70.31 46.02
	L 70.47 47.01
	L 70.63 48
	L 70.94 48.95
	L 71.24 49.9
	L 71.55 50.85
	L 71.86 51.8
	L 72.02 52.79
	L 72.18 53.78
	L 72.33 54.77
	L 72.49 55.75
	L 72.8 56.7
	L 73.11 57.66
	L 73.42 58.61
	L 73.72 59.56
	L 74.18 60.45
	L 74.63 61.34
	L 75.09 62.23
	L 75.54 63.12
	L 75.85 64.07
	L 76.16 65.02
	L 76.47 65.97
	L 76.78 66.93
	L 76.93 67.91
	L 77.09 68.9
	L 77.25 69.89
	L 77.4 70.88
	L 77.71 71.83
	L 78.02 72.78
	L 78.33 73.73
	L 78.64 74.68
	L 79.09 75.57
	L 79.55 76.46
	L 80 77.35
	L 80.45 78.24
	L 81.04 79.05
	L 81.63 79.86
	L 82.22 80.67
	L 82.81 81.48
	L 83.26 82.37
	L 83.71 83.26
	L 84.17 84.15
	L 84.62 85.04
	L 84.93 86
	L 85.24 86.95
	L 85.55 87.9
	L 85.86 88.85
	L 86.01 89.84
	L 86.17 90.82
	L 86.33 91.81
	L 86.48 92.8
	L 86.48 93.8
	L 86.48 94.8
	L 86.48 95.8
	L 86.48 96.8
	L 86.33 97.79
	L 86.17 98.78
	L 86.01 99.76
	L 85.86 100.8
	L 85.86 101.8
	L 85.86 102.8
	L 85.86 103.8
	L 85.86 104.8
	L 86.01 105.7
	L 86.17 106.7
	L 86.33 107.7
	L 86.48 108.7
	L 86.79 109.7
	L 87.1 110.6
	L 87.41 111.6
	L 87.72 112.5
	L 88.17 113.4
	L 88.63 114.3
	L 89.08 115.2
	L 89.53 116.1
	L 90.12 116.9
	L 90.71 117.7
	L 91.3 118.5
	L 91.89 119.3
	L 92.59 120
	L 93.3 120.7
	L 94.01 121.4
	L 94.71 122.1
	L 95.52 122.7
	L 96.33 123.3
	L 97.14 123.9
	L 97.95 124.5
	L 98.66 125.2
	L 99.36 125.9
	L 100.1 126.6
	L 100.8 127.3
	L 101.6 127.9
	L 102.4 128.5
	L 103.2 129.1
	L 104 129.7
	L 104.9 130.1
	L 105.8 130.6
	L 106.7 131
	L 107.6 131.5
	L 107.1 132.4
	L 106.3 133
	M 107.1 132.4
	L 106.7 133.3
	L 106.7 134.3
	M 106.7 133.3
	L 106.2 134.2
	L 105.4 134.7
	L 104.4 134.9
	M 105.4 134.7
	L 104.6 135.3
	M 106.2 134.2
	L 105.8 135
	L 105 135.6
	M 105.8 135
	L 105.3 135.9
	L 105.3 136.9
	L 104.9 137.8
	M 105.3 136.9
	L 105.3 137.9
	M 105.3 135.9
	L 104.9 136.8
	L 104.9 137.8
	M 104.9 136.8
	L 104.4 137.7
	L 103.6 138.3
	L 103.1 139.2
	M 103.6 138.3
	L 102.8 138.9
	L 101.8 139
	L 100.8 138.7
	M 101.8 139
	L 100.8 139.2
	M 102.8 138.9
	L 102 139.5
	L 101.5 140.4
	M 102 139.5
	L 101.2 140.1
	M 104.4 137.7
	L 103.9 138.6
	L 103.9 139.6
	M 103.9 138.6
	L 103.5 139.5
	L 102.7 140.1
	L 101.7 140.2
	M 102.7 140.1
	L 101.9 140.7
	M 103.5 139.5
	L 103 140.4
	L 103 141.4
	M 103 140.4
	L 102.6 141.3
	L 102.6 142.3
	L 102.1 143.2
	M 102.6 142.3
	L 102.6 143.3
	L 103 144.2
	M 102.6 143.3
	L 102.6 144.3
	M 102.6 141.3
	L 102.1 142.2
	L 101.3 142.8
	M 102.1 142.2
	L 101.7 143.1
	L 101.7 144.1
	L 101.2 145
	M 101.7 144.1
	L 101.7 145.1
	L 101.2 146
	L 101.2 147
	M 101.2 146
	L 100.8 146.8
	M 101.7 145.1
	L 101.7 146.1
	L 102.1 147
	M 101.7 146.1
	L 101.7 147.1
	M 101.7 143.1
	L 101.2 144
	L 100.4 144.5
	M 101.2 144
	L 100.8 144.8
	L 100.8 145.8
	M 100.8 144.8
	L 100.3 145.7
	L 100.3 146.7
	L 100.8 147.6
	M 100.3 146.7
	L 100.3 147.7
	M 100.3 145.7
	L 99.86 146.6
	L 99.86 147.6
	M 99.86 146.6
	L 99.41 147.5
	L 98.6 148.1
	L 97.61 148.3
	M 98.6 148.1
	L 97.79 148.7
	L 97.34 149.6
	M 97.79 148.7
	L 96.98 149.3
	L 95.99 149.4
	L 95.04 149.1
	M 95.99 149.4
	L 95 149.6
	L 94.2 150.2
	M 95 149.6
	L 94.02 149.8
	M 96.98 149.3
	L 96.17 149.9
	L 95.72 150.8
	M 96.17 149.9
	L 95.36 150.5
	L 94.91 151.3
	L 94.91 152.3
	M 94.91 151.3
	L 94.45 152.2
	M 95.36 150.5
	L 94.55 151
	L 93.57 151.2
	M 94.55 151
	L 93.74 151.6
	L 92.76 151.8
	L 91.81 151.5
	M 92.76 151.8
	L 91.77 151.9
	L 90.82 151.6
	L 90.11 150.9
	M 90.82 151.6
	L 89.87 151.3
	M 91.77 151.9
	L 90.78 152.1
	L 89.83 151.8
	M 90.78 152.1
	L 89.79 152.3
	M 93.74 151.6
	L 92.94 152.2
	L 91.95 152.4
	M 92.94 152.2
	L 92.13 152.8
	L 91.14 153
	L 90.33 153.6
	M 91.14 153
	L 90.15 153.1
	M 92.13 152.8
	L 91.32 153.4
	L 90.33 153.6
	M 91.32 153.4
	L 90.51 154
	L 90.05 154.9
	L 89.25 155.5
	M 90.05 154.9
	L 89.6 155.8
	L 89.6 156.8
	M 89.6 155.8
	L 89.15 156.7
	L 88.34 157.2
	L 87.35 157.4
	M 88.34 157.2
	L 87.53 157.8
	M 89.15 156.7
	L 88.69 157.5
	L 88.69 158.5
	M 88.69 157.5
	L 88.24 158.4
	L 88.24 159.4
	L 87.78 160.3
	M 88.24 159.4
	L 88.24 160.4
	L 88.69 161.3
	M 88.24 160.4
	L 88.24 161.4
	M 88.24 158.4
	L 87.78 159.3
	L 86.98 159.9
	M 87.78 159.3
	L 87.33 160.2
	L 87.33 161.2
	M 87.33 160.2
	L 86.88 161.1
	M 90.51 154
	L 89.7 154.6
	L 88.71 154.7
	M 89.7 154.6
	L 88.89 155.2
	L 88.44 156.1
	M 88.89 155.2
	L 88.08 155.7
	L 87.63 156.6
	L 87.63 157.6
	M 87.63 156.6
	L 87.17 157.5
	M 88.08 155.7
	L 87.27 156.3
	L 86.82 157.2
	M 87.27 156.3
	L 86.46 156.9
	M 99.41 147.5
	L 98.95 148.4
	L 98.14 149
	M 98.95 148.4
	L 98.5 149.3
	L 97.69 149.9
	L 97.24 150.8
	M 97.69 149.9
	L 96.88 150.5
	M 98.5 149.3
	L 98.05 150.2
	L 97.24 150.8
	M 98.05 150.2
	L 97.59 151.1
	L 97.59 152.1
	M 97.59 151.1
	L 97.14 152
	L 97.14 153
	L 97.59 153.9
	M 97.14 153
	L 97.14 154
	L 96.68 154.9
	L 95.87 155.5
	M 96.68 154.9
	L 96.23 155.8
	M 97.14 154
	L 97.14 155
	L 97.59 155.9
	M 97.14 155
	L 97.14 156
	L 97.59 156.9
	L 97.59 157.9
	M 97.59 156.9
	L 98.05 157.8
	M 97.14 156
	L 97.14 157
	L 96.68 157.9
	M 97.14 157
	L 97.14 158
	M 97.14 152
	L 96.68 152.9
	L 95.87 153.5
	M 96.68 152.9
	L 96.23 153.8
	L 96.23 154.8
	M 96.23 153.8
	L 95.78 154.6
	L 95.78 155.6
	L 96.23 156.5
	M 95.78 155.6
	L 95.78 156.6
	M 95.78 154.6
	L 95.32 155.5
	L 95.32 156.5
	M 95.32 155.5
	L 94.87 156.4
	L 94.06 157
	L 93.6 157.9
	M 94.06 157
	L 93.25 157.6
	L 92.8 158.5
	L 91.99 159.1
	M 92.8 158.5
	L 92.34 159.4
	M 93.25 157.6
	L 92.44 158.2
	L 91.99 159.1
	M 92.44 158.2
	L 91.63 158.8
	L 91.18 159.7
	L 91.18 160.7
	M 91.18 159.7
	L 90.72 160.6
	L 90.72 161.6
	L 90.27 162.5
	M 90.72 161.6
	L 90.72 162.6
	L 91.18 163.5
	M 90.72 162.6
	L 90.72 163.6
	M 90.72 160.6
	L 90.27 161.5
	L 89.46 162
	M 90.27 161.5
	L 89.82 162.3
	M 91.63 158.8
	L 90.82 159.4
	L 89.83 159.5
	M 90.82 159.4
	L 90.01 160
	L 89.56 160.8
	M 90.01 160
	L 89.2 160.5
	L 88.22 160.7
	L 87.27 160.4
	M 88.22 160.7
	L 87.23 160.9
	L 86.42 161.4
	M 87.23 160.9
	L 86.24 161
	M 89.2 160.5
	L 88.4 161.1
	L 87.41 161.3
	M 88.4 161.1
	L 87.59 161.7
	L 87.13 162.6
	M 87.59 161.7
	L 86.78 162.3
	L 86.32 163.2
	L 86.32 164.2
	M 86.32 163.2
	L 85.87 164.1
	L 85.87 165.1
	L 85.42 166
	M 85.87 165.1
	L 85.87 166.1
	L 86.32 167
	M 85.87 166.1
	L 85.87 167.1
	M 85.87 164.1
	L 85.42 165
	L 85.42 166
	M 85.42 165
	L 84.96 165.9
	L 84.96 166.9
	L 84.51 167.8
	M 84.96 166.9
	L 84.96 167.9
	L 85.42 168.8
	M 84.96 167.9
	L 84.96 168.9
	L 84.51 169.8
	L 83.7 170.3
	M 84.51 169.8
	L 84.05 170.7
	L 84.05 171.7
	M 84.05 170.7
	L 83.6 171.5
	M 84.96 168.9
	L 84.96 169.9
	L 84.51 170.8
	M 84.96 169.9
	L 84.96 170.9
	L 85.42 171.8
	L 86.22 172.3
	M 85.42 171.8
	L 85.87 172.7
	M 84.96 170.9
	L 84.96 171.9
	L 85.42 172.8
	M 84.96 171.9
	L 84.96 172.9
	M 84.96 165.9
	L 84.51 166.8
	L 84.51 167.8
	M 84.51 166.8
	L 84.05 167.7
	L 83.24 168.2
	L 82.79 169.1
	M 83.24 168.2
	L 82.44 168.8
	M 84.05 167.7
	L 83.6 168.5
	L 83.6 169.5
	M 83.6 168.5
	L 83.15 169.4
	L 83.15 170.4
	L 82.69 171.3
	M 83.15 170.4
	L 83.15 171.4
	L 83.6 172.3
	M 83.15 171.4
	L 83.15 172.4
	M 83.15 169.4
	L 82.69 170.3
	L 82.69 171.3
	M 82.69 170.3
	L 82.24 171.2
	M 86.78 162.3
	L 85.97 162.9
	L 84.98 163.1
	M 85.97 162.9
	L 85.16 163.5
	L 84.17 163.6
	L 83.36 164.2
	M 84.17 163.6
	L 83.18 163.8
	M 85.16 163.5
	L 84.35 164.1
	L 83.36 164.2
	M 84.35 164.1
	L 83.54 164.7
	L 83.09 165.5
	L 82.28 166.1
	M 83.09 165.5
	L 82.63 166.4
	M 83.54 164.7
	L 82.73 165.2
	L 81.74 165.4
	M 82.73 165.2
	L 81.92 165.8
	L 80.94 166
	L 79.98 165.7
	M 80.94 166
	L 79.95 166.1
	L 79 165.8
	L 78.29 165.1
	M 79 165.8
	L 78.05 165.5
	L 77.06 165.7
	M 78.05 165.5
	L 77.09 165.2
	M 79.95 166.1
	L 78.96 166.3
	L 78.01 166
	M 78.96 166.3
	L 77.97 166.5
	L 77.16 167
	L 76.71 167.9
	M 77.16 167
	L 76.35 167.6
	M 77.97 166.5
	L 76.98 166.6
	L 76.03 166.3
	M 76.98 166.6
	L 76 166.8
	L 75.19 167.4
	M 76 166.8
	L 75.01 166.9
	M 81.92 165.8
	L 81.11 166.4
	L 80.66 167.3
	M 81.11 166.4
	L 80.31 167
	L 79.85 167.9
	L 79.04 168.5
	M 79.85 167.9
	L 79.4 168.8
	L 79.4 169.8
	M 79.4 168.8
	L 78.94 169.7
	M 80.31 167
	L 79.5 167.6
	L 79.04 168.5
	M 79.5 167.6
	L 78.69 168.2
	M 94.87 156.4
	L 94.41 157.3
	L 93.6 157.9
	M 94.41 157.3
	L 93.96 158.2
	L 93.96 159.2
	M 93.96 158.2
	L 93.51 159.1
	L 93.51 160.1
	L 93.05 161
	M 93.51 160.1
	L 93.51 161.1
	M 93.51 159.1
	L 93.05 160
	L 92.24 160.6
	M 93.05 160
	L 92.6 160.9
	L 92.6 161.9
	M 92.6 160.9
	L 92.14 161.8
	L 92.14 162.8
	L 91.69 163.7
	M 92.14 162.8
	L 92.14 163.8
	L 92.6 164.7
	M 92.14 163.8
	L 92.14 164.8
	L 92.6 165.7
	L 93.41 166.3
	M 92.6 165.7
	L 93.05 166.6
	M 92.14 164.8
	L 92.14 165.8
	L 92.6 166.7
	M 92.14 165.8
	L 92.14 166.8
	M 92.14 161.8
	L 91.69 162.7
	L 91.69 163.7
	M 91.69 162.7
	L 91.24 163.6
	L 90.43 164.1
	L 89.44 164.3
	M 90.43 164.1
	L 89.62 164.7
	L 89.16 165.6
	M 89.62 164.7
	L 88.81 165.3
	M 91.24 163.6
	L 90.78 164.4
	L 90.78 165.4
	M 90.78 164.4
	L 90.33 165.3
	L 90.33 166.3
	L 90.78 167.2
	M 90.33 166.3
	L 90.33 167.3
	M 90.33 165.3
	L 89.87 166.2
	L 89.06 166.8
	M 89.87 166.2
	L 89.42 167.1
	L 89.42 168.1
	M 89.42 167.1
	L 88.97 168
	L 88.16 168.6
	L 87.17 168.8
	M 88.16 168.6
	L 87.35 169.2
	L 86.89 170.1
	M 87.35 169.2
	L 86.54 169.8
	L 85.55 169.9
	L 84.74 170.5
	M 85.55 169.9
	L 84.56 170.1
	M 86.54 169.8
	L 85.73 170.4
	L 84.74 170.5
	M 85.73 170.4
	L 84.92 171
	L 84.47 171.8
	M 84.92 171
	L 84.11 171.5
	L 83.12 171.7
	L 82.17 171.4
	M 83.12 171.7
	L 82.14 171.9
	L 81.33 172.4
	L 80.34 172.6
	M 81.33 172.4
	L 80.52 173
	M 82.14 171.9
	L 81.15 172
	L 80.2 171.7
	M 81.15 172
	L 80.16 172.2
	M 84.11 171.5
	L 83.3 172.1
	L 82.31 172.3
	M 83.3 172.1
	L 82.49 172.7
	L 81.51 172.9
	L 80.55 172.6
	M 81.51 172.9
	L 80.52 173
	L 79.71 173.6
	M 80.52 173
	L 79.53 173.2
	M 82.49 172.7
	L 81.68 173.3
	L 80.7 173.5
	M 81.68 173.3
	L 80.88 173.9
	L 80.42 174.8
	M 80.88 173.9
	L 80.07 174.5
	L 79.61 175.4
	L 78.8 176
	M 79.61 175.4
	L 79.16 176.3
	L 79.16 177.3
	M 79.16 176.3
	L 78.7 177.2
	M 80.07 174.5
	L 79.26 175.1
	L 78.27 175.2
	M 79.26 175.1
	L 78.45 175.7
	L 77.99 176.5
	M 78.45 175.7
	L 77.64 176.2
	M 88.97 168
	L 88.51 168.9
	L 87.7 169.5
	M 88.51 168.9
	L 88.06 169.8
	L 88.06 170.8
	M 88.06 169.8
	L 87.6 170.7
	L 87.6 171.7
	L 87.15 172.6
	M 87.6 171.7
	L 87.6 172.7
	M 87.6 170.7
	L 87.15 171.6
	L 87.15 172.6
	M 87.15 171.6
	L 86.7 172.5
	L 85.89 173.1
	L 85.43 173.9
	M 85.89 173.1
	L 85.08 173.6
	L 84.62 174.5
	L 83.81 175.1
	M 84.62 174.5
	L 84.17 175.4
	L 84.17 176.4
	M 84.17 175.4
	L 83.72 176.3
	M 85.08 173.6
	L 84.27 174.2
	L 83.81 175.1
	M 84.27 174.2
	L 83.46 174.8
	M 86.7 172.5
	L 86.24 173.4
	L 86.24 174.4
	M 86.24 173.4
	L 85.79 174.2
	L 84.98 174.8
	L 83.99 175
	M 84.98 174.8
	L 84.17 175.4
	M 85.79 174.2
	L 85.33 175.1
	L 85.33 176.1
	M 85.33 175.1
	L 84.88 176
	L 84.88 177
	L 84.43 177.9
	M 84.88 177
	L 84.88 178
	L 84.43 178.9
	L 84.43 179.9
	M 84.43 178.9
	L 83.97 179.8
	M 84.88 178
	L 84.88 179
	L 84.43 179.9
	M 84.88 179
	L 84.88 180
	L 85.33 180.9
	M 84.88 180
	L 84.88 181
	L 85.33 181.9
	L 85.33 182.9
	M 85.33 181.9
	L 85.79 182.8
	M 84.88 181
	L 84.88 182
	L 84.43 182.9
	M 84.88 182
	L 84.88 183
	L 85.33 183.9
	L 85.33 184.9
	M 85.33 183.9
	L 85.79 184.8
	L 85.79 185.8
	L 86.24 186.7
	M 85.79 185.8
	L 85.79 186.8
	M 85.79 184.8
	L 86.24 185.7
	L 87.05 186.3
	M 86.24 185.7
	L 86.7 186.6
	M 84.88 183
	L 84.88 184
	L 84.43 184.9
	M 84.88 184
	L 84.88 185
	L 84.43 185.9
	L 83.62 186.5
	M 84.43 185.9
	L 83.97 186.8
	L 83.97 187.8
	M 83.97 186.8
	L 83.52 187.7
	M 84.88 185
	L 84.88 186
	L 85.33 186.9
	M 84.88 186
	L 84.88 187
	L 85.33 187.9
	L 85.33 188.9
	M 85.33 187.9
	L 85.79 188.8
	L 86.6 189.4
	M 85.79 188.8
	L 86.24 189.7
	M 84.88 187
	L 84.88 188
	L 84.43 188.9
	M 84.88 188
	L 84.88 189
	L 85.33 189.9
	M 84.88 189
	L 84.88 190
	M 84.88 176
	L 84.43 176.9
	L 83.62 177.5
	M 84.43 176.9
	L 83.97 177.8
	L 83.16 178.4
	L 82.17 178.6
	M 83.16 178.4
	L 82.35 179
	L 81.9 179.9
	M 82.35 179
	L 81.54 179.6
	M 83.97 177.8
	L 83.52 178.7
	L 83.52 179.7
	M 83.52 178.7
	L 83.06 179.6
	L 82.25 180.2
	L 81.8 181.1
	M 82.25 180.2
	L 81.45 180.8
	L 80.46 180.9
	L 79.51 180.6
	M 80.46 180.9
	L 79.47 181.1
	L 78.66 181.7
	M 79.47 181.1
	L 78.48 181.2
	M 81.45 180.8
	L 80.64 181.4
	L 79.65 181.5
	M 80.64 181.4
	L 79.83 181.9
	L 79.37 182.8
	M 79.83 181.9
	L 79.02 182.5
	L 78.56 183.4
	L 77.76 184
	M 78.56 183.4
	L 78.11 184.3
	L 78.11 185.3
	M 78.11 184.3
	L 77.66 185.2
	M 79.02 182.5
	L 78.21 183.1
	L 77.22 183.3
	M 78.21 183.1
	L 77.4 183.7
	L 76.95 184.6
	M 77.4 183.7
	L 76.59 184.3
	M 83.06 179.6
	L 82.61 180.5
	L 81.8 181.1
	M 82.61 180.5
	L 82.16 181.4
	L 82.16 182.4
	L 82.61 183.3
	M 82.16 182.4
	L 82.16 183.4
	M 82.16 181.4
	L 81.7 182.3
	L 80.89 182.9
	M 81.7 182.3
	L 81.25 183.2
	L 81.25 184.2
	L 80.79 185.1
	M 81.25 184.2
	L 81.25 185.2
	L 81.7 186.1
	M 81.25 185.2
	L 81.25 186.2
	L 80.79 187.1
	L 79.98 187.6
	M 80.79 187.1
	L 80.34 187.9
	L 80.34 188.9
	M 80.34 187.9
	L 79.89 188.8
	M 81.25 186.2
	L 81.25 187.2
	L 80.79 188.1
	M 81.25 187.2
	L 81.25 188.2
	L 81.7 189.1
	M 81.25 188.2
	L 81.25 189.2
	L 81.7 190.1
	L 81.7 191.1
	M 81.7 190.1
	L 82.16 190.9
	M 81.25 189.2
	L 81.25 190.2
	L 80.79 191.1
	M 81.25 190.2
	L 81.25 191.2
	L 81.7 192.1
	M 81.25 191.2
	L 81.25 192.2
	M 81.25 183.2
	L 80.79 184.1
	L 80.79 185.1
	M 80.79 184.1
	L 80.34 184.9
	L 79.53 185.5
	L 78.54 185.7
	M 79.53 185.5
	L 78.72 186.1
	L 78.27 187
	M 78.72 186.1
	L 77.91 186.7
	M 80.34 184.9
	L 79.89 185.8
	L 79.08 186.4
	M 79.89 185.8
	L 79.43 186.7
	M 107.6 131.5
	L 108.5 131.9
	L 109.4 132.4
	L 110.3 132.8
	L 111.1 133.3
	L 112 133.9
	L 112.8 134.5
	L 113.6 135.1
	L 114.4 135.6
	L 115.1 136.4
	L 115.8 137.1
	L 116.5 137.8
	L 117.2 138.5
	L 117.8 139.3
	L 118.4 140.1
	L 119 140.9
	L 119.6 141.7
	L 120 142.6
	L 120.5 143.5
	L 120.9 144.4
	L 121.4 145.3
	L 121.7 146.2
	L 122 147.2
	L 122.3 148.1
	L 122.6 149.1
	L 122.8 150.1
	L 122.9 151.1
	L 123.1 152
	L 123.2 153
	L 123.5 154
	L 123.9 154.9
"/>
</svg>
